<?xml version="1.0" ?><svg id="Layer_1" style="enable-background:new 0 0 64 64;" version="1.1" viewBox="0 0 64 64" xml:space="preserve" xmlns="http://www.w3.org/2000/svg" xmlns:xlink="http://www.w3.org/1999/xlink"><style type="text/css">
	.st0{fill:none;stroke:#1A1A1A;stroke-width:2;stroke-linecap:round;stroke-linejoin:round;stroke-miterlimit:10;}
	.st1{fill:#1A1A1A;}
	.st2{fill:none;stroke:#000000;stroke-width:2;stroke-linecap:round;stroke-linejoin:round;stroke-miterlimit:10;}
	.st3{fill:none;stroke:#1A1A1A;stroke-width:2;stroke-linecap:round;stroke-linejoin:round;}
	.st4{fill:none;stroke:#1A1A1A;stroke-width:2;stroke-linecap:round;stroke-linejoin:round;stroke-dasharray:5.8,5.8;}
</style><g><g id="XMLID_47_"><path class="st0" d="M58,35.8V43c0,4.1-2.5,7.7-6.1,9.2C50.7,52.7,49.4,53,48,53H16c-1.4,0-2.7-0.3-3.9-0.8C8.5,50.7,6,47.1,6,43    v-7.3"/><path class="st0" d="M58,35.8c-0.2,0.1-0.4,0.2-0.7,0.2c-4.5,0.7-8.9,1-13.1,1c-4.3,0-8.4-0.3-12.5-1c-6.6-1.3-14.6-1.3-24.5,0    C6.8,36,6.3,36,6,35.8c-0.5-0.3-0.9-0.8-1-1.5c-0.1-1.1,0.6-2.1,1.7-2.2c10.4-1.4,18.8-1.3,25.7,0c7.8,1.3,15.8,1.3,24.4,0    c1.1-0.1,2,0.6,2.2,1.7C59.1,34.6,58.7,35.4,58,35.8z"/><line class="st0" x1="12.1" x2="10" y1="52.2" y2="55"/><line class="st0" x1="51.9" x2="54" y1="52.2" y2="55"/></g><path class="st0" d="M20,19h-8v-2c0-2.2,1.8-4,4-4h0c2.2,0,4,1.8,4,4V19z"/><line class="st0" x1="16" x2="16" y1="13" y2="11"/><line class="st0" x1="16" x2="16" y1="23" y2="25"/><line class="st0" x1="12" x2="10" y1="23" y2="25"/><line class="st0" x1="22" x2="20" y1="25" y2="23"/><circle class="st1" cx="43" cy="24" r="2"/><circle class="st1" cx="52" cy="27" r="1"/><circle class="st1" cx="50" cy="18" r="3"/></g></svg>