<?xml version="1.0" ?><!DOCTYPE svg  PUBLIC '-//W3C//DTD SVG 1.1//EN'  'http://www.w3.org/Graphics/SVG/1.1/DTD/svg11.dtd'><svg enable-background="new 0 0 500 500" height="500px" id="Layer_1" version="1.1" viewBox="0 0 500 500" width="500px" xml:space="preserve" xmlns="http://www.w3.org/2000/svg" xmlns:xlink="http://www.w3.org/1999/xlink"><path clip-rule="evenodd" d="M276.253,195.487L312.781,55.39  c0.542-1.721,0.817-3.55,0.817-5.448c0-9.902-7.993-17.993-17.905-17.993c-5.624,0-10.629,2.544-13.896,6.637L99.451,275.072  c-2.449,3.088-3.902,7-3.902,11.269c0,9.991,8.178,18.172,18.17,18.172h110.018l-36.518,140.097c-0.55,1.731-0.818,3.55-0.818,5.448  c0,9.912,7.996,17.993,17.897,17.993c5.634,0,10.629-2.536,13.902-6.637l182.338-236.488c2.457-3.087,3.913-6.991,3.913-11.268  c0-9.99-8.182-18.171-18.168-18.171H276.253z" fill="#010101" fill-rule="evenodd"/></svg>