<?xml version="1.0" ?><svg viewBox="0 0 64 64" xmlns="http://www.w3.org/2000/svg"><title/><g id="Garage"><path d="M60,59H58V30s0-.08,0-.11a1.18,1.18,0,0,0,0-.2,1,1,0,0,0-.08-.18l-.11-.15a.67.67,0,0,0-.15-.14s-.05-.06-.09-.08l-25-15a1,1,0,0,0-1,0l-25,15s-.06.06-.09.08a.67.67,0,0,0-.15.14.91.91,0,0,0-.11.16.67.67,0,0,0-.08.17,1.18,1.18,0,0,0,0,.2S6,30,6,30V59H4a1,1,0,0,0,0,2H60a1,1,0,0,0,0-2ZM15,59V37H49V59Zm36,0V36a1,1,0,0,0-1-1H14a1,1,0,0,0-1,1V59H8V30.57l24-14.4,24,14.4V59Z"/><path d="M35,31H29a1,1,0,0,0,0,2h6a1,1,0,0,0,0-2Z"/><path d="M41,41H23a1,1,0,0,0,0,2H41a1,1,0,0,0,0-2Z"/><path d="M41,47H23a1,1,0,0,0,0,2H41a1,1,0,0,0,0-2Z"/><path d="M41,53H23a1,1,0,0,0,0,2H41a1,1,0,0,0,0-2Z"/></g></svg>